<svg width="15" height="12" viewBox="0 0 15 12" fill="none" xmlns="http://www.w3.org/2000/svg">
<path d="M14.5584 1.27641C13.6493 0.895078 12.7395 0.75 11.8301 0.75C8.94328 0.749766 6.05672 2.21109 3.16992 2.21109C2.44594 2.21109 1.72242 2.11922 0.998437 1.88953C0.917109 1.86375 0.835547 1.85156 0.755859 1.85156C0.3525 1.85156 0 2.16375 0 2.59711V10.0329C0 10.3289 0.169453 10.6095 0.441563 10.7234C1.3507 11.1049 2.26055 11.25 3.16992 11.25C6.05672 11.25 8.94352 9.78867 11.8303 9.78867C12.5543 9.78867 13.2778 9.88055 14.0018 10.1102C14.0831 10.136 14.1647 10.1482 14.2444 10.1482C14.6477 10.1482 15.0002 9.83602 15.0002 9.40266V1.96711C15 1.67086 14.8305 1.39055 14.5584 1.27641ZM1.125 3.09891C1.59656 3.21703 2.08875 3.27633 2.595 3.3082C2.45719 3.99703 1.85156 4.51617 1.125 4.51617V3.09891ZM1.125 9.77859V8.65875C1.93055 8.65875 2.58234 9.29789 2.6182 10.0978C2.09016 10.0554 1.59656 9.94992 1.125 9.77859ZM7.5 8.25C6.4643 8.25 5.625 7.24242 5.625 6C5.625 4.75734 6.46453 3.75 7.5 3.75C8.53547 3.75 9.375 4.75734 9.375 6C9.375 7.24289 8.53523 8.25 7.5 8.25ZM13.875 8.90109C13.4644 8.7982 13.038 8.74055 12.6019 8.70328C12.7395 8.09203 13.2464 7.62797 13.875 7.54828V8.90109ZM13.875 3.36727C13.151 3.27562 12.5892 2.67117 12.567 1.92469C13.0249 1.97555 13.4597 2.0707 13.875 2.22141V3.36727Z" fill="#FF4791"/>
</svg>
