<svg width="34" height="34" viewBox="0 0 34 34" fill="none" xmlns="http://www.w3.org/2000/svg">
<path d="M17 0.53125C7.60887 0.53125 0 7.90234 0 17C0 26.0977 7.60887 33.4688 17 33.4688C26.3911 33.4688 34 26.0977 34 17C34 7.90234 26.3911 0.53125 17 0.53125ZM17 6.90625C20.3315 6.90625 23.0323 9.52266 23.0323 12.75C23.0323 15.9773 20.3315 18.5938 17 18.5938C13.6685 18.5938 10.9677 15.9773 10.9677 12.75C10.9677 9.52266 13.6685 6.90625 17 6.90625ZM17 29.75C12.9762 29.75 9.37056 27.9836 6.95766 25.2211C8.24637 22.8703 10.769 21.25 13.7097 21.25C13.8742 21.25 14.0387 21.2766 14.1964 21.323C15.0875 21.602 16.0198 21.7812 17 21.7812C17.9802 21.7812 18.9194 21.602 19.8036 21.323C19.9613 21.2766 20.1258 21.25 20.2903 21.25C23.231 21.25 25.7536 22.8703 27.0423 25.2211C24.6294 27.9836 21.0238 29.75 17 29.75Z" fill="white"/>
</svg>
