<svg width="28" height="26" viewBox="0 0 28 26" fill="none" xmlns="http://www.w3.org/2000/svg">
<path d="M25.375 0.75H2.625C1.17578 0.75 0 1.92578 0 3.375V22.625C0 24.0742 1.17578 25.25 2.625 25.25H25.375C26.8242 25.25 28 24.0742 28 22.625V3.375C28 1.92578 26.8242 0.75 25.375 0.75ZM20.8031 16.6367C21.0656 16.8992 21.0656 17.3258 20.8031 17.5883L18.5883 19.8031C18.3258 20.0656 17.8992 20.0656 17.6367 19.8031L14 16.1336L10.3633 19.8031C10.1008 20.0656 9.67422 20.0656 9.41172 19.8031L7.19688 17.5883C6.93438 17.3258 6.93438 16.8992 7.19688 16.6367L10.8664 13L7.19688 9.36328C6.93438 9.10078 6.93438 8.67422 7.19688 8.41172L9.41172 6.19688C9.67422 5.93438 10.1008 5.93438 10.3633 6.19688L14 9.86641L17.6367 6.19688C17.8992 5.93438 18.3258 5.93438 18.5883 6.19688L20.8031 8.41172C21.0656 8.67422 21.0656 9.10078 20.8031 9.36328L17.1336 13L20.8031 16.6367Z" fill="white"/>
</svg>
